<?xml version="1.0" encoding="UTF-8" standalone="no"?>
<!-- Created with Inkscape (http://www.inkscape.org/) -->

<svg
   xmlns:dc="http://purl.org/dc/elements/1.1/"
   xmlns:cc="http://creativecommons.org/ns#"
   xmlns:rdf="http://www.w3.org/1999/02/22-rdf-syntax-ns#"
   xmlns:svg="http://www.w3.org/2000/svg"
   xmlns="http://www.w3.org/2000/svg"
   xmlns:sodipodi="http://sodipodi.sourceforge.net/DTD/sodipodi-0.dtd"
   xmlns:inkscape="http://www.inkscape.org/namespaces/inkscape"
   width="75.074356mm"
   height="53.27729mm"
   viewBox="0 0 75.074356 53.27729"
   version="1.1"
   id="svg4520"
   inkscape:version="0.92.1 r15371"
   sodipodi:docname="logo.svg"
   style="enable-background:new">
  <defs
     id="defs4514">
    <style
       id="current-color-scheme"
       type="text/css">
.ColorScheme-Text {
  color:#4d4d4d;
}
    </style>
  </defs>
  <sodipodi:namedview
     id="base"
     pagecolor="#ffffff"
     bordercolor="#666666"
     borderopacity="1.0"
     inkscape:pageopacity="0.0"
     inkscape:pageshadow="2"
     inkscape:zoom="0.35"
     inkscape:cx="825.4143"
     inkscape:cy="606.07112"
     inkscape:document-units="mm"
     inkscape:current-layer="layer1"
     showgrid="false"
     inkscape:window-width="2560"
     inkscape:window-height="1377"
     inkscape:window-x="-8"
     inkscape:window-y="-8"
     inkscape:window-maximized="1"
     fit-margin-top="0"
     fit-margin-left="0"
     fit-margin-right="0"
     fit-margin-bottom="0" />
  <metadata
     id="metadata4517">
    <rdf:RDF>
      <cc:Work
         rdf:about="">
        <dc:format>image/svg+xml</dc:format>
        <dc:type
           rdf:resource="http://purl.org/dc/dcmitype/StillImage" />
        <dc:title></dc:title>
      </cc:Work>
    </rdf:RDF>
  </metadata>
  <g
     inkscape:groupmode="layer"
     id="layer2"
     inkscape:label="Layer 2"
     style="display:inline"
     transform="translate(-66.017115,-99.177082)">
    <g
       id="g4567"
       transform="matrix(3.2463089,0,0,3.3298307,79.411602,89.18759)">
      <path
         id="path4554"
         class="ColorScheme-Text"
         d="M 6,3 C 6,3 5,2.99997 5,4 H 3 v 3 11 1 H 19 V 18 7 4 H 17 C 17,2.99997 16,3 16,3 h -3 c 0,0 -1,-3e-5 -1,1 H 10 C 10,2.99997 9,3 9,3 Z M 6,4 H 9 V 5 H 6 Z m 7,0 h 3 V 5 H 13 Z M 4,7 H 18 V 18 H 4 Z m 2,1 v 2 H 8 V 8 Z m 4,0 v 2 h 2 V 8 Z m 4,0 v 2 h 2 V 8 Z m 0,7 v 2 h 2 v -2 z"
         style="color:#4d4d4d;fill:currentColor;fill-opacity:1;stroke:none"
         inkscape:connector-curvature="0" />
      <path
         id="path4556"
         d="m 6,11 v 2 h 2 v -2 z m 4,0 v 2 h 2 v -2 z m 4,0 v 2 h 2 v -2 z"
         style="fill:#2ecc71;fill-opacity:1;stroke:none"
         inkscape:connector-curvature="0" />
    </g>
  </g>
  <g
     inkscape:label="Layer 1"
     inkscape:groupmode="layer"
     id="layer1"
     style="display:inline"
     transform="translate(-66.017115,-99.177082)">
    <path
       id="path4657"
       d="m 114.81465,124.07849 c 0.26262,-6.25042 -14.69985,-9.29362 -15.348203,-10.00602 -0.32304,-0.3544 0.749673,-9.54623 -7.36538,-9.53943 -8.115041,-0.007 -7.042799,9.18503 -7.365841,9.53943 -0.648349,0.7124 -15.609919,3.7556 -15.347753,10.00602 0.261703,6.25088 8.201369,3.04049 9.894708,4.88012 1.481177,1.6102 -6.941917,11.91701 -7.884235,18.46184 -0.30714,2.13315 0.292595,2.54706 2.365763,2.54706 3.760171,0 7.349943,-0.002 10.655757,-0.002 1.493422,0 2.024554,-0.85827 2.795117,-2.04092 1.705617,-2.61794 3.765614,-6.82608 4.886484,-6.82563 1.12041,-4.5e-4 3.18087,4.20769 4.88647,6.82516 0.77058,1.18312 1.30125,2.04092 2.79467,2.04092 3.305363,0 6.895593,0.002 10.655743,0.002 2.07317,0 2.67337,-0.4139 2.36577,-2.54705 -0.94186,-6.54483 -9.36448,-16.85165 -7.88423,-18.46184 1.69333,-1.83918 9.63391,1.37121 9.89516,-4.87967 z"
       inkscape:connector-curvature="0"
       style="clip-rule:evenodd;fill:#000000;fill-rule:evenodd;stroke:#000000;stroke-width:0.85399997;stroke-miterlimit:4;stroke-dasharray:none;stroke-opacity:1" />
  </g>
  <g
     id="g4682"
     inkscape:groupmode="layer"
     inkscape:label="Layer 1 copy"
     style="display:inline"
     transform="translate(-66.017115,-99.177082)">
    <path
       style="clip-rule:evenodd;fill:#0000ff;fill-rule:evenodd;stroke:#000000;stroke-width:0.85399997;stroke-miterlimit:4;stroke-dasharray:none;stroke-opacity:1"
       inkscape:connector-curvature="0"
       d="m 111.87469,122.4859 c 0.26262,-6.25042 -14.699859,-9.29362 -15.348209,-10.00602 -0.32304,-0.3544 0.74967,-9.54623 -7.36538,-9.53943 -8.115041,-0.007 -7.042799,9.18503 -7.365841,9.53943 -0.648349,0.7124 -15.609919,3.7556 -15.347753,10.00602 0.261703,6.25088 8.201369,3.04049 9.894708,4.88012 1.481177,1.6102 -6.941917,11.91701 -7.884235,18.46184 -0.30714,2.13315 0.292595,2.54706 2.365763,2.54706 3.760171,0 7.349943,-0.002 10.655757,-0.002 1.493422,0 2.024554,-0.85827 2.795117,-2.04092 1.705617,-2.61794 3.765614,-6.82608 4.886484,-6.82563 1.12041,-4.5e-4 3.18087,4.20769 4.88647,6.82516 0.77058,1.18312 1.30125,2.04092 2.79467,2.04092 3.305369,0 6.895599,0.002 10.655749,0.002 2.07317,0 2.67337,-0.4139 2.36577,-2.54705 -0.94186,-6.54483 -9.36448,-16.85165 -7.88423,-18.46184 1.69333,-1.83918 9.63391,1.37121 9.89516,-4.87967 z"
       id="path4680" />
  </g>
</svg>
